<?xml version="1.0" standalone="no"?>
<!DOCTYPE svg PUBLIC "-//W3C//DTD SVG 20010904//EN"
 "http://www.w3.org/TR/2001/REC-SVG-20010904/DTD/svg10.dtd">
<svg version="1.0" xmlns="http://www.w3.org/2000/svg"
 width="3300.000000pt" height="3300.000000pt" viewBox="0 0 3300.000000 3300.000000"
 preserveAspectRatio="xMidYMid meet">
<metadata>
Created by potrace 1.14, written by Peter Selinger 2001-2017
</metadata>
<g transform="translate(0.000000,3300.000000) scale(0.100000,-0.100000)"
fill="#000000" stroke="none">
<path d="M16075 28494 c-2345 -94 -4523 -821 -6430 -2147 -822 -571 -1612
-1289 -2286 -2077 -417 -487 -821 -1051 -1161 -1620 -906 -1513 -1459 -3185
-1637 -4945 -44 -439 -55 -667 -55 -1205 0 -538 11 -766 55 -1205 233 -2304
1112 -4460 2561 -6278 461 -577 1025 -1159 1608 -1658 1134 -970 2514 -1753
3925 -2228 1009 -339 1975 -529 3085 -608 344 -24 1176 -24 1520 0 1667 118
3135 513 4580 1233 782 390 1461 823 2143 1366 577 461 1159 1025 1658 1608
970 1134 1753 2514 2228 3925 339 1009 529 1975 608 3085 24 344 24 1176 0
1520 -118 1667 -513 3135 -1233 4580 -390 782 -823 1461 -1366 2143 -461 577
-1025 1159 -1608 1658 -1209 1034 -2676 1844 -4195 2315 -919 285 -1818 452
-2805 519 -213 15 -991 27 -1195 19z m-5091 -5261 c3 -10 10 -79 16 -153 27
-343 77 -546 189 -768 226 -447 724 -724 1406 -782 178 -15 633 -12 887 5 631
44 1321 135 2753 365 2045 328 2766 422 3710 482 265 17 1231 17 1465 0 1014
-73 1747 -232 2411 -523 502 -221 914 -531 1162 -876 201 -281 307 -667 307
-1122 0 -342 -75 -675 -172 -768 l-29 -28 -37 41 c-20 22 -72 83 -115 136 -95
117 -292 310 -409 400 -500 385 -1129 649 -2028 852 -466 106 -820 157 -1355
198 -262 20 -1128 17 -1430 -6 -287 -21 -533 -44 -544 -51 -15 -9 -175 -341
-416 -865 -317 -688 -886 -1952 -882 -1957 5 -4 791 113 1024 152 81 14 153
31 159 38 6 6 102 146 212 310 445 657 499 728 596 775 60 31 91 27 271 -27
413 -125 440 -137 496 -223 48 -76 63 -126 56 -200 -9 -98 -56 -178 -237 -403
-195 -241 -498 -709 -740 -1140 -215 -385 -501 -961 -785 -1580 -170 -370
-227 -486 -273 -550 -102 -141 -269 -325 -384 -422 -145 -122 -189 -132 -223
-48 -18 45 -20 72 -20 285 1 261 16 393 81 720 125 621 378 1349 674 1940 33
66 60 124 60 128 0 5 -118 -18 -262 -50 -145 -32 -407 -88 -583 -123 -176 -36
-328 -68 -338 -72 -10 -5 -59 -97 -118 -223 -1044 -2230 -1768 -3556 -2505
-4585 -552 -770 -1066 -1300 -1635 -1683 -242 -163 -828 -469 -1164 -607 -751
-311 -1442 -468 -2065 -469 -228 -1 -312 7 -505 45 -781 156 -1550 699 -1830
1292 -79 167 -97 247 -103 449 -5 200 7 349 44 553 166 909 740 1881 1623
2750 229 225 304 294 461 419 1269 1014 3514 1816 6290 2246 146 22 271 44
278 48 15 8 124 246 469 1022 520 1171 808 1838 799 1847 -8 9 -182 -21 -461
-78 -1400 -287 -2152 -405 -3075 -484 -254 -22 -926 -31 -1156 -16 -840 57
-1316 239 -1739 665 -189 191 -314 376 -412 614 -180 435 -219 979 -112 1540
51 266 102 430 167 530 35 53 66 68 76 35z"/>
<path d="M15930 16990 c-1693 -332 -3042 -747 -4164 -1283 -1226 -584 -2133
-1307 -2704 -2152 -223 -331 -413 -728 -542 -1130 -52 -165 -123 -448 -146
-590 -23 -134 -26 -452 -6 -560 20 -108 60 -232 104 -320 155 -310 441 -502
859 -577 166 -30 558 -32 774 -5 506 65 960 204 1430 436 1249 618 2377 1798
3427 3581 417 708 855 1607 1217 2494 62 151 67 167 54 165 -5 -1 -141 -27
-303 -59z"/>
</g>
</svg>
